<svg width="37" height="37" viewBox="0 0 37 37" fill="none" xmlns="http://www.w3.org/2000/svg"><path d="M33.4042 29.4535C33.8169 30.0467 34.0105 30.8004 33.8532 31.6008C33.454 33.63 31.0813 34.5263 29.4221 33.3859C23.8322 37.4567 16.046 38.44 9.22922 34.51C-3.07624 27.4158 -3.07624 9.58388 9.22922 2.48964C21.5347 -4.60461 37.0001 4.31131 37.0001 18.4998C37.0001 22.7083 35.6393 26.4529 33.4042 29.4535ZM9.94241 3.72111C-1.41652 10.2697 -1.41652 26.7299 9.94241 33.2785C16.1928 36.8819 23.3262 36.0101 28.4785 32.3152C27.7389 30.8521 28.3993 28.9341 30.1086 28.3574C30.8922 28.093 31.6764 28.1848 32.3272 28.5161C34.349 25.7623 35.577 22.3406 35.577 18.4998C35.577 5.40273 21.3013 -2.82738 9.94234 3.72118M9.96156 18.4998C9.94602 23.8823 12.4343 27.0167 18.5001 27.0383C24.0577 27.058 27.0349 24.33 27.0386 18.4998C27.0419 13.2231 24.5909 9.89476 18.5001 9.96139C12.3085 10.0291 9.97637 13.3906 9.96156 18.4998Z" fill="#F8F8F8"/></svg>